<svg xmlns="http://www.w3.org/2000/svg" viewBox="0 0 1200 800" role="img" aria-label="ผู้ปฏิบัติธรรมชุดขาวนั่งสมาธิที่บ้านอย่างสงบ">
  <defs>
    <linearGradient id="room" x1="0" x2="1" y1="0" y2="1">
      <stop offset="0" stop-color="#fff8ec"/>
      <stop offset=".62" stop-color="#f1f5eb"/>
      <stop offset="1" stop-color="#e0ead4"/>
    </linearGradient>
  </defs>
  <rect width="1200" height="800" fill="url(#room)"/>
  <path d="M0 570h1200v230H0Z" fill="#f6efdf"/>
  <rect x="770" y="155" width="258" height="166" rx="14" fill="#fffdf7" stroke="#86a981" stroke-width="10" opacity=".96"/>
  <path d="M806 206h186M806 248h132" stroke="#c8a25a" stroke-width="14" stroke-linecap="round" opacity=".72"/>
  <path d="M890 321v58M830 379h140" stroke="#7a5c43" stroke-width="16" stroke-linecap="round" opacity=".55"/>
  <rect x="170" y="145" width="330" height="430" rx="8" fill="#dce8d2" opacity=".78"/>
  <path d="M170 365h330" stroke="#fffdf7" stroke-width="18" opacity=".65"/>
  <path d="M605 278c72 44 113 114 125 210" fill="none" stroke="#86a981" stroke-width="16" stroke-linecap="round" opacity=".48"/>
  <g>
    <circle cx="590" cy="395" r="44" fill="#765b42"/>
    <path d="M515 585c16-92 62-142 137-142s118 50 137 142Z" fill="#fffdf7" stroke="#7a5c43" stroke-width="7" opacity=".97"/>
    <path d="M535 628c86-46 164-47 246 0" fill="none" stroke="#c8a25a" stroke-width="28" stroke-linecap="round" opacity=".78"/>
  </g>
  <rect x="110" y="600" width="280" height="70" rx="18" fill="#fffdf7" opacity=".88"/>
  <path d="M150 636h200" stroke="#7f9f7c" stroke-width="12" stroke-linecap="round" opacity=".5"/>
</svg>
