<svg xmlns="http://www.w3.org/2000/svg" viewBox="0 0 1200 800" role="img" aria-label="ผู้ปฏิบัติธรรมชุดขาวนั่งสมาธิในศาลาบรรยากาศสงบ">
  <defs>
    <linearGradient id="sky" x1="0" x2="1" y1="0" y2="1">
      <stop offset="0" stop-color="#fff7e8"/>
      <stop offset=".58" stop-color="#e8f1df"/>
      <stop offset="1" stop-color="#cfdcbe"/>
    </linearGradient>
    <linearGradient id="shade" x1="0" x2="0" y1="0" y2="1">
      <stop offset="0" stop-color="#ffffff" stop-opacity=".18"/>
      <stop offset="1" stop-color="#4f6f52" stop-opacity=".2"/>
    </linearGradient>
  </defs>
  <rect width="1200" height="800" fill="url(#sky)"/>
  <circle cx="190" cy="140" r="84" fill="#f5dca0" opacity=".7"/>
  <path d="M0 600c170-110 300-105 455-55 185 60 330 45 505-50 90-48 166-66 240-60v365H0Z" fill="#dbe8cf"/>
  <path d="M96 420h1008v52H96Z" fill="#b88962" opacity=".42"/>
  <path d="M160 423 600 160l440 263Z" fill="#7a5c43"/>
  <path d="M235 424 600 214l365 210Z" fill="#c8a25a"/>
  <path d="M230 475h740v216H230Z" fill="#fffdf7" opacity=".92"/>
  <path d="M284 475v216M416 475v216M548 475v216M680 475v216M812 475v216M944 475v216" stroke="#7f9f7c" stroke-width="18" opacity=".5"/>
  <path d="M0 690h1200v110H0Z" fill="#f6efdf"/>
  <g fill="#fffdf7" stroke="#7a5c43" stroke-width="8" opacity=".96">
    <circle cx="500" cy="595" r="32"/>
    <path d="M452 690c10-58 38-88 86-88s76 30 86 88Z"/>
    <circle cx="702" cy="595" r="32"/>
    <path d="M654 690c10-58 38-88 86-88s76 30 86 88Z"/>
  </g>
  <rect width="1200" height="800" fill="url(#shade)"/>
</svg>
